M48
;DRILL file {KiCad (5.0.0-rc2-dev-321-g78161b592)} date 04/10/18 00:44:40
;FORMAT={-:-/ absolute / metric / decimal}
FMAT,2
METRIC,TZ
T1C0.300
T2C0.600
T3C0.850
T4C1.000
%
G90
G05
M71
T1
X199.4Y-98.3
X199.5Y-92.9
X202.2Y-77.5
X203.3Y-67.2
X203.3Y-97.1
X203.5Y-65.9
X203.6Y-95.4
X204.5Y-63.1
X204.5Y-68.675
X204.8Y-65.9
X206.Y-65.8
X206.2Y-69.8
X207.355Y-73.802
X207.4Y-66.9
X207.5Y-90.017
X207.6Y-80.6
X208.Y-87.4
X208.4Y-77.1
X208.4Y-85.
X208.5Y-70.6
X209.35Y-78.
X209.9Y-68.5
X210.Y-63.3
X210.351Y-77.159
X211.Y-93.6
X211.1Y-84.4
X211.592Y-75.918
X211.8Y-70.5
X212.Y-67.7
X212.2Y-65.9
X212.425Y-67.
X212.6Y-95.147
X212.864Y-85.038
X212.963Y-89.763
X213.375Y-86.2
X213.5Y-94.9
X213.513Y-89.213
X213.852Y-79.2
X213.852Y-80.6
X213.852Y-82.6
X214.3Y-63.3
X214.3Y-94.9
X214.4Y-93.
X214.545Y-67.603
X214.8Y-78.8
X214.953Y-66.915
X215.Y-79.7
X215.121Y-68.106
X215.222Y-68.864
X215.5Y-87.1
X215.7Y-91.325
X215.752Y-66.878
X216.4Y-87.9
X216.5Y-78.7
X216.668Y-63.4
X216.9Y-60.5
X216.9Y-62.
X217.251Y-64.718
X217.3Y-91.325
X218.1Y-64.3
X218.7Y-71.425
X218.8Y-67.8
X219.1Y-69.2
X219.298Y-77.298
X220.121Y-77.321
X220.157Y-59.236
X220.3Y-68.325
X220.3Y-74.6
X220.6Y-66.1
X220.684Y-58.587
X220.8Y-69.2
X221.125Y-67.5
X221.3Y-90.
X223.068Y-67.5
X223.068Y-68.265
X223.068Y-69.03
X223.1Y-73.7
X223.3Y-88.7
X223.4Y-76.375
X223.7Y-91.325
X223.8Y-72.3
X225.Y-56.6
X225.7Y-81.25
X226.Y-69.1
X226.4Y-88.
X226.6Y-85.5
X226.625Y-80.6
X226.9Y-56.7
X227.8Y-74.
X227.85Y-90.7
X228.4Y-80.6
X228.8Y-92.7
X229.4Y-85.7
X229.8Y-90.7
X230.613Y-74.5
X230.7Y-76.3
X231.4Y-82.9
X232.623Y-91.9
X232.623Y-92.7
X232.9Y-88.2
T3
X217.5Y-95.537
X222.5Y-95.537
T4
X238.2Y-63.06
X238.2Y-65.6
X238.2Y-68.14
X238.2Y-70.68
X238.2Y-73.22
X238.2Y-75.76
X238.2Y-78.3
X238.2Y-80.84
X238.2Y-83.38
X238.2Y-85.92
X238.2Y-88.46
X238.2Y-91.
X200.1Y-65.6
X213.6Y-55.3
X216.14Y-55.3
X218.68Y-55.3
X221.22Y-55.3
X223.76Y-55.3
X226.3Y-55.3
X200.1Y-68.14
X200.1Y-70.68
X200.1Y-73.22
X200.1Y-75.76
X200.1Y-78.3
X200.1Y-80.84
X200.1Y-83.38
X200.1Y-85.92
X200.1Y-88.46
X200.1Y-91.
X206.22Y-89.3
X208.76Y-89.3
X211.3Y-89.3
X229.5Y-97.9
X232.04Y-97.9
X234.58Y-97.9
X237.12Y-97.9
T2
X216.5Y-98.587G85X216.5Y-97.887
G05
X223.5Y-97.887G85X223.5Y-98.587
G05
T0
M30
