G04 #@! TF.GenerationSoftware,KiCad,Pcbnew,(5.0.0-rc2-dev-321-g78161b592)*
G04 #@! TF.CreationDate,2018-04-10T00:44:43+02:00*
G04 #@! TF.ProjectId,xildebug,78696C64656275672E6B696361645F70,rev?*
G04 #@! TF.SameCoordinates,Original*
G04 #@! TF.FileFunction,Soldermask,Bot*
G04 #@! TF.FilePolarity,Negative*
%FSLAX46Y46*%
G04 Gerber Fmt 4.6, Leading zero omitted, Abs format (unit mm)*
G04 Created by KiCad (PCBNEW (5.0.0-rc2-dev-321-g78161b592)) date 04/10/18 00:44:43*
%MOMM*%
%LPD*%
G01*
G04 APERTURE LIST*
%ADD10R,2.030000X2.030000*%
%ADD11O,2.030000X2.030000*%
%ADD12C,1.780000*%
%ADD13O,1.530000X2.230000*%
G04 APERTURE END LIST*
D10*
X211300000Y-89300000D03*
D11*
X208760000Y-89300000D03*
X206220000Y-89300000D03*
D10*
X229500000Y-97900000D03*
D11*
X232040000Y-97900000D03*
X234580000Y-97900000D03*
X237120000Y-97900000D03*
D10*
X213600000Y-55300000D03*
D11*
X216140000Y-55300000D03*
X218680000Y-55300000D03*
X221220000Y-55300000D03*
X223760000Y-55300000D03*
X226300000Y-55300000D03*
D10*
X200100000Y-91000000D03*
D11*
X200100000Y-88460000D03*
X200100000Y-85920000D03*
X200100000Y-83380000D03*
X200100000Y-80840000D03*
X200100000Y-78300000D03*
X200100000Y-75760000D03*
X200100000Y-73220000D03*
X200100000Y-70680000D03*
X200100000Y-68140000D03*
X200100000Y-65600000D03*
D10*
X238200000Y-91000000D03*
D11*
X238200000Y-88460000D03*
X238200000Y-85920000D03*
X238200000Y-83380000D03*
X238200000Y-80840000D03*
X238200000Y-78300000D03*
X238200000Y-75760000D03*
X238200000Y-73220000D03*
X238200000Y-70680000D03*
X238200000Y-68140000D03*
X238200000Y-65600000D03*
X238200000Y-63060000D03*
D12*
X217500000Y-95537500D03*
X222500000Y-95537500D03*
D13*
X216500000Y-98237500D03*
X223500000Y-98237500D03*
M02*
