G04 #@! TF.GenerationSoftware,KiCad,Pcbnew,(5.0.0-rc2-dev-321-g78161b592)*
G04 #@! TF.CreationDate,2018-04-10T00:44:43+02:00*
G04 #@! TF.ProjectId,xildebug,78696C64656275672E6B696361645F70,rev?*
G04 #@! TF.SameCoordinates,Original*
G04 #@! TF.FileFunction,Paste,Top*
G04 #@! TF.FilePolarity,Positive*
%FSLAX46Y46*%
G04 Gerber Fmt 4.6, Leading zero omitted, Abs format (unit mm)*
G04 Created by KiCad (PCBNEW (5.0.0-rc2-dev-321-g78161b592)) date 04/10/18 00:44:43*
%MOMM*%
%LPD*%
G01*
G04 APERTURE LIST*
%ADD10R,1.700000X0.900000*%
%ADD11R,0.670000X1.000000*%
%ADD12R,1.000000X0.670000*%
%ADD13R,1.500000X1.900000*%
%ADD14R,0.400000X1.350000*%
%ADD15R,1.000000X1.000000*%
%ADD16R,0.600000X0.800000*%
%ADD17R,0.200000X0.800000*%
%ADD18R,0.800000X0.200000*%
%ADD19R,0.970000X0.970000*%
%ADD20R,0.830000X0.830000*%
%ADD21R,1.800000X0.250000*%
%ADD22R,0.250000X1.800000*%
%ADD23R,0.800000X0.900000*%
%ADD24R,1.060000X0.650000*%
%ADD25R,0.650000X0.400000*%
G04 APERTURE END LIST*
D10*
X231400000Y-77400000D03*
X231400000Y-80800000D03*
D11*
X230525000Y-82200000D03*
X232275000Y-82200000D03*
D12*
X204500000Y-72475000D03*
X204500000Y-70725000D03*
D11*
X207525000Y-78900000D03*
X209275000Y-78900000D03*
D12*
X204500000Y-68675000D03*
X204500000Y-66925000D03*
X205600000Y-77975000D03*
X205600000Y-76225000D03*
D11*
X207525000Y-80600000D03*
X209275000Y-80600000D03*
X205425000Y-86200000D03*
X207175000Y-86200000D03*
X210275000Y-86200000D03*
X208525000Y-86200000D03*
D12*
X204500000Y-63100000D03*
X204500000Y-64850000D03*
X220300000Y-76375000D03*
X220300000Y-74625000D03*
D11*
X211625000Y-86200000D03*
X213375000Y-86200000D03*
X215875000Y-61200000D03*
X214125000Y-61200000D03*
D12*
X223400000Y-74625000D03*
X223400000Y-76375000D03*
X222100000Y-91325000D03*
X222100000Y-93075000D03*
X223700000Y-93075000D03*
X223700000Y-91325000D03*
X217100000Y-76375000D03*
X217100000Y-74625000D03*
X218700000Y-74625000D03*
X218700000Y-76375000D03*
D11*
X229675000Y-94300000D03*
X227925000Y-94300000D03*
X228375000Y-80600000D03*
X226625000Y-80600000D03*
D12*
X225300000Y-91325000D03*
X225300000Y-93075000D03*
D13*
X221000000Y-98237500D03*
D14*
X219350000Y-95537500D03*
X218700000Y-95537500D03*
X221300000Y-95537500D03*
X220650000Y-95537500D03*
X220000000Y-95537500D03*
D13*
X219000000Y-98237500D03*
D15*
X207150000Y-57700000D03*
X209650000Y-57700000D03*
X205450000Y-57700000D03*
X202950000Y-57700000D03*
D12*
X218700000Y-73175000D03*
X218700000Y-71425000D03*
X226800000Y-76375000D03*
X226800000Y-74625000D03*
X226800000Y-71450000D03*
X226800000Y-73200000D03*
X226800000Y-69975000D03*
X226800000Y-68225000D03*
D16*
X201100000Y-97000000D03*
X201100000Y-95400000D03*
X201900000Y-97000000D03*
X201900000Y-95400000D03*
D17*
X218800000Y-64350000D03*
X219200000Y-64350000D03*
X219600000Y-64350000D03*
X220000000Y-64350000D03*
X220400000Y-64350000D03*
X220800000Y-64350000D03*
X221200000Y-64350000D03*
D18*
X221950000Y-63600000D03*
X221950000Y-63200000D03*
X221950000Y-62800000D03*
X221950000Y-62400000D03*
X221950000Y-62000000D03*
X221950000Y-61600000D03*
X221950000Y-61200000D03*
D17*
X221200000Y-60450000D03*
X220800000Y-60450000D03*
X220400000Y-60450000D03*
X220000000Y-60450000D03*
X219600000Y-60450000D03*
X219200000Y-60450000D03*
X218800000Y-60450000D03*
D18*
X218050000Y-61200000D03*
X218050000Y-61600000D03*
X218050000Y-62000000D03*
X218050000Y-62400000D03*
X218050000Y-62800000D03*
X218050000Y-63200000D03*
X218050000Y-63600000D03*
D19*
X220600000Y-63000000D03*
X220600000Y-61800000D03*
X219400000Y-61800000D03*
X219400000Y-63000000D03*
D20*
X222060000Y-85460000D03*
X222060000Y-84430000D03*
X222060000Y-83400000D03*
X222060000Y-82370000D03*
X222060000Y-81340000D03*
X221030000Y-85460000D03*
X221030000Y-84430000D03*
X221030000Y-83400000D03*
X221030000Y-82370000D03*
X221030000Y-81340000D03*
X220000000Y-85460000D03*
X220000000Y-84430000D03*
X220000000Y-83400000D03*
X220000000Y-82370000D03*
X220000000Y-81340000D03*
X218970000Y-85460000D03*
X218970000Y-84430000D03*
X218970000Y-83400000D03*
X218970000Y-82370000D03*
X218970000Y-81340000D03*
X217940000Y-81340000D03*
X217940000Y-82370000D03*
X217940000Y-83400000D03*
X217940000Y-84430000D03*
X217940000Y-85460000D03*
D21*
X223950000Y-80650000D03*
X223950000Y-81150000D03*
X223950000Y-81650000D03*
X223950000Y-82150000D03*
X223950000Y-82650000D03*
X223950000Y-83150000D03*
X223950000Y-83650000D03*
X223950000Y-84150000D03*
X223950000Y-84650000D03*
X223950000Y-85150000D03*
X223950000Y-85650000D03*
X223950000Y-86150000D03*
D22*
X222750000Y-87350000D03*
X222250000Y-87350000D03*
X221750000Y-87350000D03*
X221250000Y-87350000D03*
X220750000Y-87350000D03*
X220250000Y-87350000D03*
X219750000Y-87350000D03*
X219250000Y-87350000D03*
X218750000Y-87350000D03*
X218250000Y-87350000D03*
X217750000Y-87350000D03*
X217250000Y-87350000D03*
D21*
X216050000Y-86150000D03*
X216050000Y-85650000D03*
X216050000Y-85150000D03*
X216050000Y-84650000D03*
X216050000Y-84150000D03*
X216050000Y-83650000D03*
X216050000Y-83150000D03*
X216050000Y-82650000D03*
X216050000Y-82150000D03*
X216050000Y-81650000D03*
X216050000Y-81150000D03*
X216050000Y-80650000D03*
D22*
X217250000Y-79450000D03*
X217750000Y-79450000D03*
X218250000Y-79450000D03*
X218750000Y-79450000D03*
X219250000Y-79450000D03*
X219750000Y-79450000D03*
X220250000Y-79450000D03*
X220750000Y-79450000D03*
X221250000Y-79450000D03*
X221750000Y-79450000D03*
X222250000Y-79450000D03*
X222750000Y-79450000D03*
D23*
X229750000Y-90700000D03*
X227850000Y-90700000D03*
X228800000Y-92700000D03*
D24*
X206200000Y-64950000D03*
X206200000Y-63050000D03*
X208400000Y-63050000D03*
X208400000Y-64000000D03*
X208400000Y-64950000D03*
X208400000Y-72550000D03*
X208400000Y-71600000D03*
X208400000Y-70650000D03*
X206200000Y-70650000D03*
X206200000Y-72550000D03*
X207300000Y-84350000D03*
X207300000Y-82450000D03*
X209500000Y-82450000D03*
X209500000Y-83400000D03*
X209500000Y-84350000D03*
X208400000Y-68750000D03*
X208400000Y-67800000D03*
X208400000Y-66850000D03*
X206200000Y-66850000D03*
X206200000Y-68750000D03*
D25*
X209350000Y-77250000D03*
X209350000Y-75950000D03*
X207450000Y-76600000D03*
X209350000Y-76600000D03*
X207450000Y-75950000D03*
X207450000Y-77250000D03*
D12*
X205600000Y-84275000D03*
X205600000Y-82525000D03*
D11*
X210025000Y-72400000D03*
X211775000Y-72400000D03*
D12*
X210100000Y-66875000D03*
X210100000Y-65125000D03*
X217100000Y-68225000D03*
X217100000Y-69975000D03*
X217100000Y-73175000D03*
X217100000Y-71425000D03*
X220300000Y-68325000D03*
X220300000Y-70075000D03*
X220300000Y-73175000D03*
X220300000Y-71425000D03*
D11*
X206425000Y-61200000D03*
X208175000Y-61200000D03*
X205075000Y-59500000D03*
X203325000Y-59500000D03*
X211775000Y-74100000D03*
X210025000Y-74100000D03*
D12*
X215700000Y-93075000D03*
X215700000Y-91325000D03*
X217300000Y-91325000D03*
X217300000Y-93075000D03*
X218900000Y-91325000D03*
X218900000Y-93075000D03*
X220500000Y-93075000D03*
X220500000Y-91325000D03*
D11*
X202375000Y-93800000D03*
X200625000Y-93800000D03*
D12*
X199500000Y-97075000D03*
X199500000Y-95325000D03*
D11*
X202375000Y-98600000D03*
X200625000Y-98600000D03*
D12*
X225100000Y-76375000D03*
X225100000Y-74625000D03*
X225100000Y-68225000D03*
X225100000Y-69975000D03*
D11*
X203325000Y-61200000D03*
X205075000Y-61200000D03*
D12*
X225100000Y-71425000D03*
X225100000Y-73175000D03*
X205600000Y-79325000D03*
X205600000Y-81075000D03*
M02*
